<svg xmlns="http://www.w3.org/2000/svg" width="126" height="39" fill="none"><g fill="#AC6255" clip-path="url(#a)"><path d="M6.424.688c.832 0 1.63.33 2.218.918l5.05 5.05 5.05-5.05A3.135 3.135 0 0 1 20.96.687h2.4c1.396 0 2.096 1.69 1.108 2.677L13.692 14.139 2.917 3.364C1.929 2.376 2.629.688 4.025.688h2.4z"/><path d="M.918 15.869A3.135 3.135 0 0 1 0 13.652v-2.4c0-1.396 1.689-2.095 2.676-1.108l11.038 11.039L33.291 1.605a3.135 3.135 0 0 1 2.217-.919h.549c.866 0 1.568.702 1.568 1.568v1.201c0 .832-.33 1.63-.919 2.217l-8.528 8.529 8.528 8.528c.588.588.919 1.386.919 2.217v2.4c0 1.396-1.689 2.095-2.677 1.108L24.437 17.943 4.986 37.393a3.135 3.135 0 0 1-2.217.92H1.568A1.568 1.568 0 0 1 0 36.743v-.548c0-.832.33-1.63.918-2.218l9.055-9.054-9.055-9.055z"/><path d="M19.798 37.394a3.135 3.135 0 0 1-2.217.918h-2.4c-1.396 0-2.095-1.688-1.108-2.676L24.36 25.349l10.287 10.287c.988.987.288 2.676-1.108 2.676h-2.4c-.831 0-1.629-.33-2.217-.918l-4.562-4.562-4.562 4.562z"/></g><path fill="#221F1D" d="M58.241 7.22c1.624 0 2.974.23 4.05.692 1.075.45 1.881 1.108 2.42 1.975.548.867.822 1.926.822 3.177 0 1.207-.247 2.233-.74 3.078-.483.834-1.098 1.476-1.844 1.926-.746.45-1.515.702-2.305.757.834.022 1.668.225 2.502.61.845.383 1.548.998 2.107 1.843.56.845.84 1.98.84 3.407 0 1.35-.269 2.54-.807 3.572-.537 1.02-1.393 1.816-2.568 2.387-1.163.57-2.683.856-4.56.856h-9.003V7.22h9.086zm-4.938 11.276-1.432-1.267h4.889c1.448 0 2.546-.302 3.292-.906.757-.614 1.136-1.465 1.136-2.551 0-.736-.16-1.328-.478-1.778-.307-.45-.768-.78-1.383-.988-.603-.22-1.333-.329-2.189-.329h-5.794l1.959-2.156v9.975zm4 9.547c1.404 0 2.485-.318 3.243-.954.757-.637 1.135-1.526 1.135-2.667 0-.659-.12-1.224-.362-1.696a2.928 2.928 0 0 0-.987-1.168 4.174 4.174 0 0 0-1.482-.675 7.455 7.455 0 0 0-1.843-.214H51.87l1.432-1.284V30.2l-1.959-2.157h5.959zM69.157 31.5V14.019h4.33v5.81l-1.005-.56a8.14 8.14 0 0 1 .61-2.14 5.861 5.861 0 0 1 1.184-1.777 5.112 5.112 0 0 1 1.794-1.202c.703-.285 1.504-.428 2.404-.428.713 0 1.273.055 1.679.165.417.099.675.181.773.247l-.79 3.967c-.11-.077-.334-.17-.675-.28-.329-.12-.773-.181-1.333-.181-.889 0-1.635.154-2.239.46a3.65 3.65 0 0 0-1.415 1.219 5.063 5.063 0 0 0-.757 1.679 7.317 7.317 0 0 0-.23 1.81V31.5h-4.33zm13.633 0V14.019h4.28V31.5h-4.28zm2.157-20.708c-.703 0-1.317-.186-1.844-.56-.516-.383-.773-.916-.773-1.596 0-.67.257-1.19.773-1.564.527-.373 1.142-.56 1.844-.56.691 0 1.295.187 1.81.56.516.373.774.895.774 1.564 0 .68-.258 1.213-.774 1.597-.515.373-1.119.56-1.81.56zm9.201 17.185h9.795V31.5h-14.47v-3.341l9.597-10.766.083.148h-9.317V14.02h13.926v3.341l-9.531 10.733-.082-.116zm17.744 3.885c-1.306 0-2.453-.203-3.441-.609-.987-.417-1.761-1.015-2.321-1.794-.559-.78-.839-1.718-.839-2.815 0-1.196.323-2.178.971-2.946.658-.78 1.542-1.378 2.65-1.795 1.108-.428 2.338-.702 3.687-.823 1.998-.197 3.391-.384 4.181-.56.801-.186 1.202-.482 1.202-.888v-.033c0-.768-.346-1.36-1.037-1.778-.691-.417-1.668-.625-2.93-.625-1.328 0-2.348.235-3.062.707-.702.461-1.053 1.197-1.053 2.206h-4.28c0-1.372.362-2.53 1.086-3.473.736-.955 1.74-1.68 3.013-2.173 1.273-.494 2.716-.74 4.329-.74 1.503 0 2.881.224 4.132.674 1.251.45 2.255 1.13 3.012 2.041.757.911 1.136 2.047 1.136 3.408v7.967c0 .417.011.828.033 1.234.032.395.093.752.181 1.07.109.351.241.648.395.89.153.24.274.405.362.493h-4.28a2.997 2.997 0 0 1-.329-.444 5.211 5.211 0 0 1-.362-.79c-.11-.33-.192-.68-.247-1.054a8.973 8.973 0 0 1-.083-1.267l.856.592c-.329.67-.834 1.257-1.514 1.761-.669.494-1.47.878-2.403 1.153-.933.274-1.948.411-3.045.411zm1.053-3.407c.9 0 1.734-.154 2.502-.461a4.21 4.21 0 0 0 1.86-1.416c.472-.647.708-1.476.708-2.485v-2.338l1.053 1.185c-.702.264-1.547.483-2.535.659a45.2 45.2 0 0 1-2.995.395c-1.295.12-2.272.346-2.93.675-.648.329-.972.867-.972 1.613 0 .724.275 1.267.823 1.63.549.362 1.378.543 2.486.543z"/><defs><clipPath id="a"><path fill="#fff" d="M0 .688h37.625v37.625H0z"/></clipPath></defs></svg>